<?xml version="1.0" encoding="UTF-8" standalone="no"?> <svg xmlns="http://www.w3.org/2000/svg" viewBox="0 0 64 64"><g id="led-Diode-light-electronics"><path d="M49,42v4H15V42h3V39H16V19a16,16,0,0,1,32,0V39H46v3Z" style="fill:#d80027"/><polygon points="40 30 40 46 36 46 36 31 40 30" style="fill:#ffda44"/><polygon points="40 20 40 25 28 29 28 46 24 46 24 20 40 20" style="fill:#ffda44"/><rect x="24" y="46" width="4" height="15" style="fill:#e0e0e2"/><rect x="36" y="46" width="4" height="15" style="fill:#e0e0e2"/><path d="M20.066,14.632l1.847.767a12.109,12.109,0,0,1,6.468-6.478L27.61,7.075A14.125,14.125,0,0,0,20.066,14.632Z" style="fill:#e8667d"/><rect x="25" y="21" width="11" height="1" style="fill:#fff0b4"/><rect x="24" y="46" width="4" height="1" style="fill:#bcbec0"/><rect x="36" y="46" width="4" height="1" style="fill:#bcbec0"/></g></svg>